<svg xmlns="http://www.w3.org/2000/svg" xmlns:xlink="http://www.w3.org/1999/xlink" width="500" zoomAndPan="magnify" viewBox="0 0 375 374.999991" height="500" preserveAspectRatio="xMidYMid meet" version="1.0"><defs><clipPath id="9efe4daacd"><path d="M 122.59375 94.871094 L 252.34375 94.871094 L 252.34375 237.371094 L 122.59375 237.371094 Z M 122.59375 94.871094 " clip-rule="nonzero"/></clipPath></defs><g clip-path="url(#9efe4daacd)"><path stroke-linecap="butt" transform="matrix(0.343188, 0, 0, 0.343188, 100.526907, 86.692751)" fill-opacity="1" fill="#d68297" fill-rule="nonzero" stroke-linejoin="miter" d="M 0.502092 0.496899 L 0.502092 478.129452 L 478.134645 478.129452 L 478.134645 0.496899 Z M 473.36549 473.37168 L 5.248482 473.37168 L 5.248482 5.254672 L 473.36549 5.254672 Z M 473.36549 473.37168 " stroke="#000000" stroke-width="1" stroke-opacity="1" stroke-miterlimit="10"/></g><path stroke-linecap="butt" transform="matrix(0.343188, 0, 0, 0.343188, 100.526907, 86.692751)" fill-opacity="1" fill="#d68297" fill-rule="nonzero" stroke-linejoin="miter" d="M 256.943753 218.853616 L 257.205544 218.591825 L 194.694332 72.728536 L 187.512144 72.728536 L 134.186393 201.916856 C 131.966858 207.391709 129.997732 212.092571 128.290397 216.01944 C 126.583063 219.94631 125.035079 223.326833 123.680594 226.149626 C 122.314726 228.972419 121.028534 231.453745 119.844782 233.582223 C 118.638266 235.722082 117.443131 237.725355 116.247997 239.603423 L 106.003989 239.603423 L 106.003989 245.749827 C 110.101592 245.408361 113.766671 245.146569 117.021989 244.975836 C 120.254542 244.805102 122.826927 244.725427 124.704995 244.725427 C 127.095263 244.725427 129.918056 244.805102 133.173374 244.975836 C 136.405928 245.146569 140.264504 245.396978 144.703574 245.749827 L 144.703574 239.603423 L 128.552189 239.603423 C 129.735941 234.470037 131.204248 229.256975 132.911583 223.964238 C 134.618918 218.6715 137.17992 212.001513 140.594589 203.965658 L 147.014167 188.326473 L 211.608327 188.326473 L 233.405299 239.603423 L 213.395337 239.603423 L 213.395337 245.749827 C 219.814916 245.465272 225.494649 245.237627 230.434537 245.066894 L 128.335926 347.165504 C 127.061116 346.232161 125.478986 345.685814 123.783034 345.685814 C 119.469168 345.685814 115.974824 349.191541 115.974824 353.505407 C 115.974824 357.80789 119.469168 361.313617 123.783034 361.313617 C 128.085517 361.313617 131.591244 357.80789 131.591244 353.505407 C 131.591244 351.47937 130.817253 349.646831 129.565207 348.258198 L 176.073002 301.761785 L 257.330748 220.504039 C 257.091722 219.980457 256.966517 219.422727 256.943753 218.853616 Z M 149.575169 182.19145 L 179.305556 108.878502 L 209.286352 182.19145 Z M 129.952203 353.505407 C 129.952203 356.897312 127.174939 359.674576 123.783034 359.674576 C 120.379747 359.674576 117.613865 356.897312 117.613865 353.505407 C 117.613865 350.10212 120.379747 347.324855 123.783034 347.324855 C 127.174939 347.324855 129.952203 350.10212 129.952203 353.505407 Z M 129.952203 353.505407 " stroke="#000000" stroke-width="1" stroke-opacity="1" stroke-miterlimit="10"/><path stroke-linecap="butt" transform="matrix(0.343188, 0, 0, 0.343188, 100.526907, 86.692751)" fill-opacity="1" fill="#d68297" fill-rule="nonzero" stroke-linejoin="miter" d="M 364.824537 128.30797 C 360.510671 128.30797 357.004944 131.813697 357.004944 136.11618 C 357.004944 138.028395 357.69926 139.781258 358.837483 141.135744 L 235.124016 264.860593 L 235.04434 266.693132 L 235.04434 399.728646 L 215.045761 399.728646 L 215.045761 405.875051 L 225.824733 405.624642 L 246.335513 405.112441 C 251.104668 404.941708 255.213653 404.85065 258.628323 404.85065 C 262.054374 404.85065 264.695052 404.85065 266.584502 404.85065 L 296.565298 404.85065 C 298.955567 404.85065 301.858035 404.85065 305.295469 404.85065 C 308.710138 404.85065 312.807742 404.941708 317.588279 405.112441 L 337.837267 405.624642 L 348.354448 405.875051 C 348.012982 400.935163 347.785337 397.156262 347.705661 394.59526 C 347.614603 392.04564 347.580457 389.393581 347.580457 386.650463 C 347.580457 385.967529 347.580457 385.4098 347.580457 384.977275 C 347.580457 384.556133 347.580457 383.952874 347.580457 383.190265 C 347.580457 382.416273 347.614603 381.403255 347.705661 380.10568 C 347.785337 378.83087 347.842248 377.078007 347.842248 374.858472 C 347.842248 371.78527 347.876395 369.44053 347.967453 367.812871 C 348.047128 366.185212 348.104039 364.785198 348.104039 363.578681 C 348.104039 362.394929 348.138186 361.359146 348.229244 360.505479 C 348.30892 359.651811 348.354448 358.445295 348.354448 356.908694 L 341.946253 356.908694 C 341.604786 364.603082 340.534856 371.182011 338.747846 376.645482 C 336.960835 382.120335 334.263247 386.559405 330.677844 389.985457 C 327.092441 393.400126 322.516784 395.881452 316.973638 397.406671 C 311.407727 398.954655 304.794651 399.717264 297.100263 399.717264 L 264.797492 399.717264 L 264.797492 240.04733 L 287.095282 240.04733 L 287.095282 233.900925 C 279.844801 234.208245 273.379694 234.447272 267.734107 234.618006 L 360.055382 142.285349 C 361.375721 143.321132 363.048909 143.935773 364.847301 143.935773 C 369.161166 143.935773 372.655511 140.441428 372.655511 136.127562 C 372.632747 131.825079 369.12702 128.30797 364.824537 128.30797 Z M 364.824537 142.285349 C 361.421249 142.285349 358.655367 139.519467 358.655367 136.11618 C 358.655367 132.724275 361.421249 129.947011 364.824537 129.947011 C 368.216441 129.947011 370.993706 132.724275 370.993706 136.11618 C 370.993706 139.530849 368.216441 142.285349 364.824537 142.285349 Z M 364.824537 142.285349 " stroke="#000000" stroke-width="1" stroke-opacity="1" stroke-miterlimit="10"/></svg>